<?xml version="1.0" encoding="UTF-8" standalone="no"?>
<!-- Created with Inkscape (http://www.inkscape.org/) -->

<svg
   version="1.1"
   id="svg1"
   width="510.28778"
   height="511.04965"
   viewBox="0 0 510.28778 511.04965"
   sodipodi:docname="moon_5758839.png"
   xmlns:inkscape="http://www.inkscape.org/namespaces/inkscape"
   xmlns:sodipodi="http://sodipodi.sourceforge.net/DTD/sodipodi-0.dtd"
   xmlns="http://www.w3.org/2000/svg"
   xmlns:svg="http://www.w3.org/2000/svg">
  <defs
     id="defs1" />
  <sodipodi:namedview
     id="namedview1"
     pagecolor="#ffffff"
     bordercolor="#000000"
     borderopacity="0.25"
     inkscape:showpageshadow="2"
     inkscape:pageopacity="0.0"
     inkscape:pagecheckerboard="0"
     inkscape:deskcolor="#d1d1d1" />
  <g
     inkscape:groupmode="layer"
     inkscape:label="Image"
     id="g1"
     transform="translate(-561.99921,1.3737472)">
    <path
       style="fill:#000000"
       d="m 793.64312,509.08804 c -88.72934,-8.53633 -166.64316,-62.39496 -206.01428,-142.40925 -11.65675,-23.69012 -19.06363,-46.92389 -23.66191,-74.2223 -2.6236,-15.57547 -2.6236,-61.07929 0,-76.65476 12.43301,-73.8105 50.97,-133.799584 112.67619,-175.398764 29.94362,-20.186469 66.08879,-33.8067835 106,-39.94318566 15.82173,-2.43261244 52.77817,-2.44746034 69,-0.0277221 C 937.77725,13.280306 1009.1582,64.950489 1046.7031,141.62911 c 11.6554,23.80391 19.0371,46.98816 23.6162,74.17262 2.6236,15.57547 2.6236,61.07929 0,76.65476 -4.6022,27.32161 -12.0196,50.57911 -23.6556,74.17262 -37.8666,76.77939 -109.38828,128.65095 -194.52058,141.07727 -12.4322,1.81466 -45.80611,2.60289 -58.5,1.38166 z m 62.87166,-135.51741 c 32.97407,-4.83513 64.97496,-23.04315 85.67768,-48.74929 7.50478,-9.31853 15.23904,-21.87381 19.04503,-30.91644 2.45985,-5.84435 2.51255,-6.32837 1.0279,-9.44171 -2.17708,-4.56538 -5.25412,-5.06722 -15.55366,-2.53671 -30.46055,7.48391 -57.80582,4.67949 -85.12584,-8.73017 -34.29745,-16.83443 -58.26212,-48.71688 -65.44467,-87.0672 -3.48798,-18.62364 -1.43139,-43.9768 5.01751,-61.85466 3.01867,-8.36847 3.15016,-12.47957 0.48439,-15.14534 -2.62614,-2.62614 -6.55612,-2.52634 -14.22717,0.3613 -23.4111,8.8127 -47.90208,27.20441 -61.77283,46.38881 -30.1016,41.63305 -35.33258,94.45072 -13.88791,140.2274 15.81558,33.76056 45.267,60.0642 80.38791,71.79601 8.63096,2.88309 21.0962,5.74004 28.5,6.53202 9.00415,0.96316 26.24249,0.54795 35.87166,-0.86402 z M 823.64312,358.6731 c -0.825,-0.20007 -4.875,-0.91001 -9,-1.57763 -16.83348,-2.72449 -36.74816,-11.34821 -50.99196,-22.08123 -58.08789,-43.77054 -65.43979,-126.3661 -16.03391,-180.13436 6.9823,-7.59882 20.5259,-18.13965 29.35029,-22.843 5.03666,-2.68451 5.80251,-2.86737 5.32565,-1.27158 -4.12368,13.79959 -5.16966,40.65793 -2.234,57.36381 9.82258,55.89708 52.93351,99.96323 109.08393,111.50093 10.88247,2.23612 31.06312,3.0323 41.41576,1.63397 4.62866,-0.6252 8.57566,-0.97681 8.7711,-0.78137 1.03484,1.03484 -9.32009,14.36568 -17.64574,22.71698 -17.47372,17.52754 -36.79599,28.03714 -61.54112,33.47288 -6.39925,1.40571 -32.95178,2.86109 -36.5,2.0006 z"
       id="path1" />
  </g>
</svg>
